<?xml version="1.0" encoding="UTF-8" standalone="no"?>
<!DOCTYPE svg PUBLIC "-//W3C//DTD SVG 1.1//EN" "http://www.w3.org/Graphics/SVG/1.1/DTD/svg11.dtd">
<svg width="100%" height="100%" viewBox="0 0 512 512" version="1.1" xmlns="http://www.w3.org/2000/svg" xmlns:xlink="http://www.w3.org/1999/xlink" xml:space="preserve" xmlns:serif="http://www.serif.com/" style="fill-rule:evenodd;clip-rule:evenodd;stroke-linejoin:round;stroke-miterlimit:2;">
    <g transform="matrix(5.33474,0,0,5.33474,1.30511,2.87979)">
        <g>
            <path d="M56.527,60.122L51.865,59.089C51.818,55.951 51.146,52.921 49.869,50.082L53.475,47.162C54.333,46.467 54.465,45.208 53.771,44.349L49.25,38.765C48.916,38.352 48.432,38.09 47.904,38.034C47.379,37.977 46.848,38.136 46.436,38.469L42.925,41.315C40.439,39.408 37.648,38.056 34.628,37.296L34.628,32.838C34.628,31.734 33.732,30.838 32.628,30.838L25.445,30.838C24.341,30.838 23.445,31.734 23.445,32.838L23.445,37.299C20.365,38.076 17.523,39.47 14.998,41.443L11.453,38.623C11.038,38.293 10.513,38.144 9.981,38.201C9.454,38.261 8.972,38.528 8.642,38.944L4.17,44.567C3.482,45.431 3.626,46.69 4.49,47.377L8.132,50.273C6.882,53.121 6.237,56.152 6.216,59.283L1.55,60.361C0.474,60.611 -0.197,61.683 0.051,62.759L1.667,69.76C1.916,70.837 2.992,71.507 4.066,71.259L8.879,70.148C10.308,72.83 12.223,75.166 14.57,77.091L12.4,81.641C11.924,82.638 12.346,83.831 13.343,84.307L19.827,87.402C20.098,87.531 20.393,87.596 20.688,87.596C20.914,87.596 21.139,87.558 21.356,87.482C21.856,87.304 22.265,86.937 22.494,86.458L24.692,81.847C27.615,82.41 30.658,82.401 33.571,81.815L35.807,86.399C36.291,87.393 37.492,87.802 38.482,87.321L44.938,84.173C45.93,83.689 46.343,82.491 45.859,81.499L43.653,76.975C45.988,75.029 47.884,72.674 49.292,69.976L54.104,71.043C55.18,71.28 56.25,70.602 56.489,69.522L58.046,62.508C58.16,61.99 58.066,61.447 57.779,61C57.495,60.552 57.045,60.236 56.527,60.122ZM37.856,59.435C37.856,64.294 33.903,68.247 29.043,68.247C24.185,68.247 20.232,64.294 20.232,59.435C20.232,54.576 24.184,50.623 29.043,50.623C33.903,50.624 37.856,54.576 37.856,59.435Z" style="fill:white;fill-rule:nonzero;"/>
            <path d="M61.943,42.999C62.689,42.999 63.406,42.579 63.75,41.86L64.804,39.652C66.63,40.005 68.539,39.997 70.355,39.631L71.425,41.826C71.908,42.818 73.107,43.231 74.1,42.747L76.791,41.434C77.268,41.201 77.633,40.788 77.806,40.287C77.978,39.786 77.945,39.236 77.711,38.759L76.658,36.604C78.116,35.39 79.304,33.918 80.185,32.227L82.463,32.731C83.537,32.969 84.609,32.289 84.849,31.211L85.495,28.288C85.733,27.21 85.054,26.142 83.974,25.903L81.79,25.419C81.762,23.457 81.341,21.562 80.542,19.787L82.215,18.432C82.627,18.098 82.89,17.614 82.944,17.087C83,16.56 82.842,16.031 82.508,15.619L80.624,13.292C79.927,12.433 78.667,12.302 77.811,12.997L76.197,14.304C74.643,13.111 72.898,12.266 71.009,11.791L71.009,9.751C71.009,8.647 70.113,7.751 69.009,7.751L66.015,7.751C64.911,7.751 64.015,8.647 64.015,9.751L64.015,11.791C62.088,12.277 60.312,13.149 58.735,14.383L57.101,13.085C56.239,12.398 54.981,12.542 54.291,13.405L52.43,15.75C52.1,16.166 51.949,16.695 52.008,17.222C52.069,17.749 52.335,18.231 52.751,18.561L54.44,19.906C53.66,21.685 53.256,23.582 53.243,25.542L51.055,26.047C50.537,26.166 50.09,26.486 49.809,26.936C49.528,27.386 49.437,27.929 49.557,28.446L50.232,31.364C50.481,32.44 51.555,33.111 52.63,32.862L54.909,32.335C55.802,34.011 56.999,35.472 58.469,36.678L57.434,38.848C57.205,39.327 57.177,39.876 57.354,40.376C57.532,40.876 57.9,41.286 58.378,41.514L61.08,42.803C61.361,42.935 61.654,42.999 61.943,42.999ZM62.01,25.635C62.01,22.596 64.483,20.125 67.522,20.125C70.56,20.125 73.032,22.597 73.032,25.635C73.032,28.674 70.56,31.146 67.522,31.146C64.482,31.146 62.01,28.674 62.01,25.635Z" style="fill:white;fill-rule:nonzero;"/>
            <path d="M93.782,64.115L91.6,63.632C91.572,61.671 91.151,59.776 90.35,58L92.025,56.645C92.437,56.311 92.7,55.827 92.755,55.299C92.81,54.771 92.652,54.242 92.318,53.831L90.433,51.504C89.738,50.645 88.477,50.514 87.62,51.209L86.007,52.516C84.451,51.323 82.707,50.478 80.819,50.003L80.819,47.964C80.819,46.86 79.923,45.964 78.819,45.964L75.825,45.964C74.721,45.964 73.825,46.86 73.825,47.964L73.825,50.005C71.896,50.49 70.119,51.363 68.544,52.597L68.543,52.597L66.911,51.299C66.496,50.968 65.973,50.817 65.439,50.877C64.912,50.938 64.43,51.203 64.1,51.619L62.237,53.962C61.549,54.826 61.693,56.085 62.557,56.774L64.248,58.118C63.466,59.903 63.061,61.799 63.049,63.755L60.861,64.26C60.344,64.38 59.896,64.698 59.615,65.15C59.335,65.599 59.243,66.142 59.363,66.66L60.038,69.578C60.287,70.654 61.365,71.322 62.435,71.076L64.716,70.55C65.609,72.227 66.806,73.688 68.274,74.893L68.275,74.893L67.24,77.061C67.011,77.54 66.982,78.09 67.159,78.59C67.338,79.09 67.705,79.499 68.183,79.728L70.885,81.017C71.162,81.149 71.456,81.212 71.744,81.212C72.49,81.212 73.208,80.792 73.551,80.072L74.605,77.865C76.433,78.218 78.344,78.212 80.157,77.844L81.228,80.037C81.712,81.029 82.91,81.443 83.903,80.959L86.593,79.647C87.07,79.415 87.435,79.002 87.607,78.501C87.78,78 87.748,77.45 87.514,76.973L86.462,74.818C87.921,73.603 89.107,72.13 89.986,70.441L92.264,70.947C92.784,71.062 93.325,70.967 93.772,70.68C94.219,70.395 94.535,69.945 94.65,69.426L95.297,66.503C95.542,65.422 94.861,64.355 93.782,64.115ZM82.838,63.848C82.838,66.887 80.366,69.359 77.329,69.359C74.291,69.359 71.817,66.887 71.817,63.848C71.817,60.809 74.291,58.337 77.329,58.337C80.366,58.338 82.838,60.81 82.838,63.848Z" style="fill:white;fill-rule:nonzero;"/>
        </g>
    </g>
</svg>
